<mxfile host="app.diagrams.net" modified="2023-05-20T00:40:19.700Z" agent="Mozilla/5.0 (X11; Linux x86_64; rv:102.0) Gecko/20100101 Firefox/102.0" version="21.3.2" etag="A3ZrKySiWt3E3AIBHpTA" type="github">
  <diagram name="Page-1" id="Uswxj4_SL07w-YHSScZ4">
    <mxGraphModel>
      <root>
        <mxCell id="0" />
        <mxCell id="1" parent="0" />
      </root>
    </mxGraphModel>
  </diagram>
</mxfile>
